<?xml version="1.0" standalone="no"?>
<!DOCTYPE svg PUBLIC "-//W3C//DTD SVG 20010904//EN"
 "http://www.w3.org/TR/2001/REC-SVG-20010904/DTD/svg10.dtd">
<svg version="1.0" xmlns="http://www.w3.org/2000/svg" width="64.000000pt" height="64.000000pt" viewBox="0 0 64.000000 64.000000" preserveAspectRatio="xMidYMid meet">
    <g transform="translate(0.000000,64.000000) scale(0.100000,-0.100000)" fill="#ffffff" stroke="none">
        <path d="M178 480 c-7 -11 -23 -20 -35 -20 -27 0 -53 -35 -53 -72 0 -20 -5 -27 -22 -30 -33 -4 -33 -59 -1 -73 13 -5 23 -17 23 -25 0 -26 30 -60 53 -60 12 0 28 -9 35 -20 14 -22 51 -27 70 -8 7 7 12 34 12 60 l0 48 45 0 45 0 0 -44 c0 -70 46 -99 85 -56 10 11 28 20 41 20 25 0 44 26 44 58 0 13 9 22 24 26 25 6 42 38 31 57 -4 5 -18 14 -31 19 -18 7 -24 17 -24 38 0 31 -26 62 -53 62 -9 0 -21 9 -27 20 -14 27 -65 27 -80 1 -5 -11 -10 -43 -10 -71 l0 -51 -42 3 -43 3 -3 55 c-2 30 -8 60 -14 67 -16 20 -56 16 -70 -7z m57 -22 c3 -13 4 -77 3 -143 -3 -112 -4 -120 -23 -120 -19 0 -20 8 -23 129 -1 72 0 136 2 143 8 21 35 15 41 -9z m183 -126 c2 -137 2 -142 -18 -142 -19 0 -20 6 -20 138 0 76 3 142 7 146 21 21 28 -10 31 -142z m-255 0 c-2 -100 -6 -114 -28 -105 -12 4 -15 26 -15 97 0 96 4 109 30 104 12 -3 15 -19 13 -96z m327 -2 c0 -93 -1 -100 -20 -100 -19 0 -20 7 -20 100 0 93 1 100 20 100 19 0 20 -7 20 -100z m-400 -5 c0 -8 -7 -15 -15 -15 -16 0 -20 12 -8 23 11 12 23 8 23 -8z m260 0 c0 -11 -12 -15 -45 -15 -42 0 -54 7 -38 23 3 4 24 7 45 7 27 0 38 -4 38 -15z m198 -3 c2 -7 -3 -12 -12 -12 -9 0 -16 7 -16 16 0 17 22 14 28 -4z"/>
    </g>
</svg>
